# xmcd
#
# Track frame offsets: 
#        150
#        14017
#        30582
#        44727
#        60112
#        73597
#        95500
#        110742
#        124632
#        144140
#        167812
#        180655
#        193577
#        208485
#        221905
#        236550
#        254345
#
# Disc length: 3554 seconds
#
# Revision: 8
# Processed by: cddbd v1.5.2PL0 Copyright (c) Steve Scherf et al.
# Submitted via: ExactAudioCopy v1.1
#
DISCID=000de011
DTITLE=David Allan Coe - David Allan Coe 17 Greatest Hits
DYEAR=1985
DGENRE=Country
TTITLE0=She Used To Love Me A Lot
TTITLE1=Mona Lisa Lost Her Smile
TTITLE2=The Ride
TTITLE3=Now I Lay Me Down To Cheat
TTITLE4=Tennessee Whiskey
TTITLE5=If That Ain't Country
TTITLE6=Longhaired Redneck
TTITLE7=Jody Like A Melody
TTITLE8=Please Come To Boston
TTITLE9=You Never Even Called Me By My Name
TTITLE10=This Bottle (In My Hand) (With George Jones)
TTITLE11=Would You Lay With Me (In A Field Of Stone)
TTITLE12=Jack Daniel's, If You Please
TTITLE13=Take This Job And Shove It
TTITLE14=Wille, Waylon, And Me
TTITLE15=Pledging My Love
TTITLE16=Hank WIlliams Junior-Junior (With Dickey Betts and Kris Kristof
TTITLE16=ferson)
EXTD=YEAR: 1985
EXTT0=
EXTT1=
EXTT2=
EXTT3=
EXTT4=
EXTT5=
EXTT6=
EXTT7=
EXTT8=
EXTT9=
EXTT10=
EXTT11=
EXTT12=
EXTT13=
EXTT14=
EXTT15=
EXTT16=
PLAYORDER=
